<?xml version="1.0" encoding="utf-8"?>
<!-- Svg Vector Icons : http://www.onlinewebfonts.com/icon -->
<!DOCTYPE svg PUBLIC "-//W3C//DTD SVG 1.1//EN" "http://www.w3.org/Graphics/SVG/1.1/DTD/svg11.dtd">
<svg version="1.1" xmlns="http://www.w3.org/2000/svg" xmlns:xlink="http://www.w3.org/1999/xlink" x="0px" y="0px" viewBox="0 0 1000 1000" enable-background="new 0 0 1000 1000" xml:space="preserve">
<metadata> Svg Vector Icons : http://www.onlinewebfonts.com/icon </metadata>
<g><path d="M500,10C229.4,10,10,229.3,10,500c0,270.6,219.4,490,490,490c270.6,0,490-219.4,490-490C990,229.3,770.6,10,500,10z M785.8,704.2H214.2V431.8l199.9,138.6c25.5,17.4,55.8,25,85.9,25.1c30-0.1,60.3-7.7,85.8-25.1l200-138.6L785.8,704.2L785.8,704.2z M785.8,352.3L548.6,516.7c-11.6,8.2-30,13.5-48.6,13.5c-18.7,0.1-37.1-5.3-48.7-13.5L214.2,352.4v-56.6h571.6L785.8,352.3L785.8,352.3z"/></g>
</svg>