<svg width="52" height="53" viewBox="0 0 52 53" fill="none" xmlns="http://www.w3.org/2000/svg">
<circle cx="26" cy="26.5" r="26" fill="black"/>
<path d="M19.3701 41.4732C15.6462 39.0718 12.514 36.9836 12.3399 36.8444L12.0615 36.566L12.1659 31.3108L12.2703 26.0207L14.6369 27.4477L16.9687 28.8398V31.45V34.0602L21.4931 36.9836C23.9641 38.6194 26.0871 39.9419 26.1915 39.9419C26.2959 39.9419 27.9316 38.8978 29.8458 37.6101L33.3608 35.3131L32.978 34.9303C32.7692 34.7214 28.036 31.624 22.4328 28.0741L12.2703 21.566L12.1659 16.6588L12.0615 11.7516H21.3191H30.5418V14.1878V16.624H23.7205H16.9339L17.0383 17.7377L17.1427 18.8862L26.0174 24.559L34.8922 30.2319L34.9966 20.9743L35.0662 11.7516H37.5024H39.9386V24.2806V36.8444L33.6045 41.0207C30.0894 43.3525 26.9919 45.3711 26.6787 45.5103L26.1219 45.8235L19.3701 41.4732Z" fill="white"/>
</svg>
